<?xml version="1.0" standalone="no"?>
<!DOCTYPE svg PUBLIC "-//W3C//DTD SVG 20010904//EN"
 "http://www.w3.org/TR/2001/REC-SVG-20010904/DTD/svg10.dtd">
<svg version="1.0" xmlns="http://www.w3.org/2000/svg"
 width="1000.000000pt" height="1000.000000pt" viewBox="0 0 1000.000000 1000.000000"
 preserveAspectRatio="xMidYMid meet">

<g transform="translate(0.000000,1000.000000) scale(0.100000,-0.100000)"
fill="#000000" stroke="none">
<path d="M4160 9221 c0 -5 9 -31 21 -58 177 -410 330 -1016 378 -1498 6 -60
16 -157 21 -215 34 -338 17 -871 -41 -1275 -73 -518 -213 -1019 -400 -1430
-54 -121 -59 -133 -53 -149 6 -14 95 -16 840 -16 802 0 834 1 834 18 0 10 -3
22 -7 25 -17 18 -161 445 -227 677 -223 778 -362 1688 -407 2656 -10 213 -7
1145 3 1244 l3 25 -482 3 c-292 1 -483 -1 -483 -7z"/>
<path d="M7600 9141 c-7 -13 -13 -14 -28 -4 -11 6 -23 8 -28 3 -8 -7 -117 -17
-229 -20 -16 -1 -37 -4 -45 -7 -8 -3 -64 -7 -125 -9 -60 -2 -146 -6 -190 -9
-44 -3 -116 -7 -160 -10 -44 -3 -114 -7 -155 -8 -41 -2 -84 -8 -95 -14 -14 -7
-26 -8 -38 -2 -11 6 -23 6 -35 0 -9 -5 -24 -6 -32 -2 -8 5 -44 4 -80 -1 -36
-5 -78 -9 -95 -9 -16 0 -37 -3 -45 -6 -8 -2 -49 -6 -90 -8 -41 -2 -120 -6
-175 -8 -55 -3 -144 -7 -198 -8 -54 -2 -100 -6 -103 -10 -2 -4 -72 -7 -155 -8
-84 -1 -159 -6 -168 -11 -10 -5 -24 -4 -34 2 -41 22 -93 -55 -54 -79 7 -4 24
-24 37 -43 13 -19 36 -48 51 -65 15 -16 37 -49 49 -73 12 -23 26 -44 31 -47
11 -7 69 -94 69 -104 0 -4 14 -20 31 -37 17 -16 37 -42 45 -59 8 -16 22 -42
31 -56 10 -14 27 -39 37 -55 10 -16 28 -42 39 -59 50 -72 97 -144 97 -149 0
-3 20 -33 45 -67 25 -34 45 -67 45 -74 0 -7 20 -34 44 -60 25 -25 52 -62 61
-81 9 -19 29 -49 44 -67 15 -18 35 -49 45 -70 10 -21 30 -50 44 -65 15 -15 35
-44 46 -64 10 -20 38 -63 62 -95 24 -32 44 -63 44 -69 0 -6 9 -19 21 -30 12
-10 32 -40 44 -65 13 -25 31 -51 39 -58 9 -8 16 -19 16 -27 0 -7 6 -17 14 -21
7 -4 23 -26 34 -49 11 -22 43 -67 70 -100 27 -32 52 -69 56 -81 4 -11 22 -41
41 -65 19 -23 35 -49 35 -55 0 -7 4 -13 8 -13 5 0 25 -29 46 -64 53 -90 69
-106 102 -97 28 7 36 17 54 61 5 14 14 32 20 40 5 8 16 31 25 50 8 19 24 49
34 65 11 17 20 40 20 52 1 12 12 35 26 51 14 17 25 37 25 47 0 9 11 31 25 49
14 18 25 38 25 45 0 6 4 19 9 29 5 9 14 31 21 47 7 17 16 37 21 45 5 8 12 23
15 33 4 9 10 17 15 17 5 0 9 9 9 19 0 11 5 23 10 26 6 3 10 13 10 22 0 9 11
30 23 47 13 17 27 43 31 59 3 15 16 37 27 48 12 12 18 27 14 36 -3 9 -2 19 3
22 12 8 72 131 72 148 0 7 4 13 10 13 5 0 14 17 20 38 5 22 19 47 30 57 11 10
20 29 20 42 0 13 7 26 15 29 8 3 17 21 21 40 3 18 12 38 20 45 8 6 14 19 14
29 0 9 11 34 25 54 14 20 25 41 25 46 0 5 9 25 20 45 11 20 20 42 20 49 0 7 7
19 15 26 8 7 15 19 15 27 0 7 9 23 20 35 11 12 20 30 20 39 0 10 11 35 25 55
14 20 25 44 26 53 0 9 9 30 20 46 10 17 21 37 25 45 6 16 36 76 58 119 8 14
26 51 41 81 14 30 36 73 47 95 11 22 25 51 30 65 20 51 41 90 50 90 4 0 8 7 8
15 0 9 7 26 15 39 9 13 13 31 9 40 -6 15 -25 17 -181 15 -147 -2 -175 -4 -183
-18z"/>
<path d="M8070 9028 c-6 -13 -14 -30 -18 -38 -5 -8 -18 -35 -30 -60 -12 -25
-60 -124 -107 -220 -47 -96 -85 -180 -85 -186 0 -6 -11 -21 -25 -34 -14 -13
-25 -32 -25 -42 0 -9 -9 -32 -20 -50 -11 -18 -20 -40 -20 -49 0 -9 -7 -22 -15
-29 -8 -7 -15 -22 -15 -34 0 -12 -9 -27 -19 -33 -11 -7 -22 -25 -26 -41 -3
-17 -19 -51 -36 -76 -16 -26 -29 -57 -29 -70 0 -12 -11 -33 -25 -46 -14 -14
-25 -35 -25 -50 0 -15 -11 -36 -25 -50 -14 -13 -25 -30 -25 -37 0 -7 -4 -21
-9 -31 -5 -9 -14 -30 -21 -47 -7 -16 -16 -37 -21 -45 -5 -8 -13 -24 -18 -35
-5 -12 -16 -27 -25 -34 -9 -7 -16 -23 -16 -35 0 -12 -34 -88 -75 -169 -41 -81
-75 -156 -75 -165 0 -10 -9 -25 -20 -34 -11 -10 -23 -30 -26 -45 -4 -15 -15
-39 -26 -52 -10 -13 -18 -34 -18 -46 0 -12 -7 -28 -15 -35 -8 -7 -20 -30 -27
-52 -6 -22 -18 -42 -25 -45 -7 -3 -13 -14 -13 -25 0 -11 -8 -32 -18 -46 -26
-37 -52 -92 -52 -109 0 -8 -11 -29 -25 -47 -14 -18 -25 -40 -25 -48 0 -8 -9
-27 -20 -41 -14 -18 -20 -40 -20 -76 0 -50 1 -51 29 -51 21 0 30 6 34 21 6 23
27 17 27 -7 0 -22 37 -17 43 7 6 23 27 17 27 -7 0 -8 9 -14 20 -14 11 0 20 6
20 14 0 23 16 28 98 31 42 1 79 4 82 5 5 3 51 6 233 13 48 2 93 9 99 15 7 7
17 8 29 1 13 -6 25 -6 38 3 15 9 23 9 35 -1 8 -7 21 -9 27 -5 7 4 29 8 48 10
20 1 77 5 126 9 50 4 124 8 165 9 41 1 83 6 94 11 11 5 21 4 25 -4 6 -9 15 -9
37 0 16 6 88 13 159 15 72 2 159 6 195 10 36 4 97 8 136 9 40 1 77 6 83 10 7
4 18 2 25 -4 9 -8 24 -6 55 6 31 12 45 13 53 5 7 -7 17 -8 28 -2 9 5 71 10
138 12 67 1 122 5 122 9 0 3 75 7 167 8 91 1 174 6 185 12 22 12 25 71 3 89
-8 7 -15 17 -15 22 0 6 -19 31 -42 58 -24 26 -56 73 -73 105 -16 31 -40 65
-52 75 -13 10 -23 23 -23 30 0 6 -19 37 -43 68 -24 31 -47 64 -51 72 -14 30
-32 57 -63 97 -18 22 -33 44 -33 49 0 4 -19 32 -42 62 -43 56 -60 81 -77 117
-5 12 -16 27 -24 34 -9 7 -28 36 -42 64 -15 29 -45 69 -66 90 -25 24 -39 47
-39 62 0 14 -4 25 -9 25 -5 0 -14 13 -21 30 -7 16 -20 32 -30 35 -9 3 -22 18
-29 33 -12 26 -65 109 -140 220 -20 29 -40 61 -46 70 -5 9 -14 21 -18 26 -64
85 -92 126 -103 151 -7 17 -26 43 -43 59 -17 17 -31 37 -31 45 0 9 -17 38 -38
65 -51 68 -70 96 -87 133 -8 17 -23 38 -32 45 -10 7 -27 31 -38 52 -11 22 -33
57 -50 77 -16 21 -42 56 -57 79 -31 45 -54 51 -68 18z"/>
<path d="M1900 3734 l0 -1616 43 25 c23 13 96 55 162 92 66 38 231 133 367
212 136 78 249 143 251 143 2 0 104 58 227 130 122 71 224 130 226 130 2 0 32
17 66 38 35 21 117 69 183 107 66 38 246 141 400 231 154 89 298 172 320 184
22 12 80 45 128 73 101 60 91 54 227 132 58 33 123 69 145 81 22 12 41 28 43
36 2 9 -126 88 -360 223 -199 116 -372 215 -383 221 -11 6 -43 24 -71 41 -27
17 -71 42 -97 56 -25 15 -142 82 -259 150 -117 68 -235 136 -263 152 -27 15
-135 77 -240 138 -104 60 -210 121 -235 135 -25 14 -110 64 -190 110 -80 47
-181 106 -225 130 -44 25 -164 94 -266 154 -103 59 -190 108 -193 108 -3 0 -6
-727 -6 -1616z"/>
<path d="M7780 5289 c-58 -34 -143 -83 -190 -109 -144 -80 -159 -89 -360 -205
-107 -62 -213 -123 -235 -135 -22 -12 -105 -61 -185 -108 -80 -47 -190 -111
-245 -142 -55 -31 -174 -99 -265 -152 -91 -52 -226 -130 -300 -173 -156 -89
-481 -277 -655 -378 -66 -38 -141 -81 -167 -96 -29 -16 -48 -33 -48 -43 0 -10
5 -18 10 -18 6 0 27 -11 48 -24 20 -12 65 -38 100 -57 35 -19 71 -38 80 -44
10 -5 92 -53 182 -106 166 -97 595 -345 660 -382 85 -47 263 -150 685 -395
105 -60 208 -120 230 -132 22 -12 139 -80 260 -149 121 -70 289 -167 372 -215
84 -48 150 -92 147 -97 -3 -5 0 -9 5 -9 8 0 11 485 11 1615 0 1533 -1 1615
-18 1615 -9 0 -64 -28 -122 -61z"/>
<path d="M4770 3525 c-7 -8 -17 -15 -22 -15 -6 0 -55 -27 -110 -61 -56 -33
-121 -72 -147 -86 -25 -14 -86 -49 -136 -78 -49 -29 -106 -62 -125 -73 -19
-11 -89 -51 -155 -90 -66 -38 -136 -78 -155 -88 -19 -11 -40 -25 -48 -31 -7
-7 -17 -13 -21 -13 -5 0 -71 -37 -147 -82 -76 -45 -150 -88 -164 -95 -14 -8
-38 -23 -55 -33 -16 -11 -46 -27 -65 -37 -19 -10 -118 -66 -219 -125 -101 -60
-185 -108 -186 -108 -3 0 -153 -87 -320 -184 -77 -46 -167 -98 -200 -117 -33
-19 -68 -38 -77 -44 -9 -5 -29 -17 -45 -26 -15 -9 -68 -40 -118 -69 -49 -29
-106 -62 -125 -73 -68 -40 -104 -57 -122 -57 -10 0 -18 -7 -18 -16 0 -8 4 -13
9 -10 5 4 11 3 13 -2 1 -4 57 -39 123 -76 176 -101 839 -484 1180 -681 121
-71 236 -137 255 -148 60 -33 110 -62 260 -149 80 -47 168 -97 195 -112 28
-16 147 -85 265 -154 118 -69 239 -139 270 -155 30 -17 95 -54 144 -84 49 -29
92 -53 96 -53 12 0 6 3233 -6 3237 -6 2 -17 -3 -24 -12z"/>
<path d="M5015 3530 c-9 -14 -3 -3230 5 -3230 4 0 47 24 96 53 49 30 114 67
144 84 31 16 152 86 270 155 118 69 238 138 265 154 28 15 115 65 195 112 150
87 200 116 260 149 19 11 134 77 255 148 341 197 1004 580 1180 681 66 37 122
72 123 76 2 5 8 6 13 2 5 -3 9 2 9 10 0 9 -8 16 -18 16 -18 0 -54 17 -122 57
-19 11 -75 44 -125 73 -49 29 -103 60 -118 69 -16 9 -36 21 -45 26 -9 6 -44
25 -77 44 -33 19 -123 71 -200 117 -167 97 -317 184 -320 184 -1 0 -85 48
-186 108 -101 59 -200 115 -219 125 -19 10 -48 26 -65 37 -16 10 -41 25 -55
33 -14 7 -88 50 -164 95 -76 45 -142 82 -147 82 -4 0 -14 6 -21 13 -8 6 -29
20 -48 31 -19 10 -89 50 -155 88 -66 39 -136 79 -155 90 -19 11 -75 44 -125
73 -49 29 -111 64 -136 78 -26 14 -91 53 -147 86 -55 34 -104 61 -110 61 -5 0
-15 7 -22 15 -15 18 -26 19 -35 5z"/>
</g>
</svg>
